<svg data-v-423bf9ae="" xmlns="http://www.w3.org/2000/svg" viewBox="0 0 292 90" class="iconLeft"><!----><!----><!----><g data-v-423bf9ae="" id="4223cc90-87bb-46ca-9233-051a48485d21" fill="#F1F1F1" transform="matrix(6.302831172943115,0,0,6.302831172943115,108.22733306884766,-7.946243762969971)"><path d="M9.32 3.78L9.32 6.17L6.44 6.17L6.44 13.02L3.18 13.02L3.18 6.17L0.28 6.17L0.28 3.78L9.32 3.78ZM19.35 3.78L19.35 13.02L15.82 13.02L13.61 8.82L13.10 7.69L13.08 7.69L13.13 9.59L13.13 13.02L10.30 13.02L10.30 3.78L13.83 3.78L16.04 7.99L16.55 9.11L16.58 9.11L16.52 7.21L16.52 3.78L19.35 3.78ZM24.77 3.64L24.77 3.64Q26.14 3.64 27.10 3.96L27.10 3.96L27.10 3.96Q28.07 4.28 29.02 5.11L29.02 5.11L27.59 7.14L27.59 7.14Q26.96 6.55 26.31 6.29L26.31 6.29L26.31 6.29Q25.66 6.03 24.86 6.03L24.86 6.03L24.86 6.03Q24.37 6.03 24.08 6.18L24.08 6.18L24.08 6.18Q23.79 6.33 23.79 6.57L23.79 6.57L23.79 6.57Q23.79 6.72 24.07 6.80L24.07 6.80L24.07 6.80Q24.35 6.89 25.05 7.01L25.05 7.01L25.05 7.01Q27.08 7.38 27.97 8.11L27.97 8.11L27.97 8.11Q28.85 8.85 28.85 10.18L28.85 10.18L28.85 10.18Q28.85 11.13 28.31 11.80L28.31 11.80L28.31 11.80Q27.76 12.47 26.82 12.82L26.82 12.82L26.82 12.82Q25.89 13.16 24.72 13.16L24.72 13.16L24.72 13.16Q23.09 13.16 22.11 12.85L22.11 12.85L22.11 12.85Q21.13 12.54 20.19 11.86L20.19 11.86L21.59 9.65L21.59 9.65Q22.18 10.22 22.88 10.49L22.88 10.49L22.88 10.49Q23.58 10.77 24.49 10.77L24.49 10.77L24.49 10.77Q25.51 10.77 25.51 10.35L25.51 10.35L25.51 10.35Q25.51 10.12 25.19 10.01L25.19 10.01L25.19 10.01Q24.86 9.90 24.14 9.77L24.14 9.77L24.14 9.77Q23.07 9.58 22.32 9.32L22.32 9.32L22.32 9.32Q21.57 9.07 21.01 8.47L21.01 8.47L21.01 8.47Q20.44 7.87 20.44 6.82L20.44 6.82L20.44 6.82Q20.44 5.87 20.94 5.15L20.94 5.15L20.94 5.15Q21.45 4.44 22.42 4.04L22.42 4.04L22.42 4.04Q23.39 3.64 24.77 3.64L24.77 3.64Z"></path></g><!----><g data-v-423bf9ae="" id="f21bb817-b3ba-4406-847b-bf0f7a78a6d8" transform="matrix(1.0227272510528564,0,0,1.0227272510528564,-4.090908050537109,-4.090908050537109)" stroke="none" fill="#005ec2"><path d="M80 82H16c-1.1 0-2-.9-2-2V16c0-1.104.9-2 2-2h64c1.1 0 2 .896 2 2v64c0 1.1-.9 2-2 2zm-62-4h60V18H18v60z"></path><path d="M68 70H28c-1.1 0-2-.9-2-2V28c0-1.104.9-2 2-2h40c1.1 0 2 .896 2 2v40c0 1.1-.9 2-2 2zm-38-4h36V30H30v36zM20 16c-1.1 0-2-.896-2-2V6c0-1.104.9-2 2-2s2 .896 2 2v8c0 1.104-.9 2-2 2zM28 16c-1.1 0-2-.896-2-2V6c0-1.104.9-2 2-2s2 .896 2 2v8c0 1.104-.9 2-2 2zM36 16c-1.1 0-2-.896-2-2V6c0-1.104.9-2 2-2s2 .896 2 2v8c0 1.104-.9 2-2 2zM44 16c-1.1 0-2-.896-2-2V6c0-1.104.9-2 2-2s2 .896 2 2v8c0 1.104-.9 2-2 2zM52 16c-1.1 0-2-.896-2-2V6c0-1.104.9-2 2-2s2 .896 2 2v8c0 1.104-.9 2-2 2zM60 16c-1.1 0-2-.896-2-2V6c0-1.104.9-2 2-2s2 .896 2 2v8c0 1.104-.9 2-2 2zM68 16c-1.1 0-2-.896-2-2V6c0-1.104.9-2 2-2s2 .896 2 2v8c0 1.104-.9 2-2 2zM76 16c-1.1 0-2-.896-2-2V6c0-1.104.9-2 2-2s2 .896 2 2v8c0 1.104-.9 2-2 2zM20 92c-1.1 0-2-.9-2-2v-8c0-1.1.9-2 2-2s2 .9 2 2v8c0 1.1-.9 2-2 2zM28 92c-1.1 0-2-.9-2-2v-8c0-1.1.9-2 2-2s2 .9 2 2v8c0 1.1-.9 2-2 2zM36 92c-1.1 0-2-.9-2-2v-8c0-1.1.9-2 2-2s2 .9 2 2v8c0 1.1-.9 2-2 2zM44 92c-1.1 0-2-.9-2-2v-8c0-1.1.9-2 2-2s2 .9 2 2v8c0 1.1-.9 2-2 2zM52 92c-1.1 0-2-.9-2-2v-8c0-1.1.9-2 2-2s2 .9 2 2v8c0 1.1-.9 2-2 2zM60 92c-1.1 0-2-.9-2-2v-8c0-1.1.9-2 2-2s2 .9 2 2v8c0 1.1-.9 2-2 2zM68 92c-1.1 0-2-.9-2-2v-8c0-1.1.9-2 2-2s2 .9 2 2v8c0 1.1-.9 2-2 2zM76 92c-1.1 0-2-.9-2-2v-8c0-1.1.9-2 2-2s2 .9 2 2v8c0 1.1-.9 2-2 2zM14 78H6c-1.1 0-2-.9-2-2s.9-2 2-2h8c1.1 0 2 .9 2 2s-.9 2-2 2zM14 70H6c-1.1 0-2-.9-2-2s.9-2 2-2h8c1.1 0 2 .9 2 2s-.9 2-2 2zM14 62H6c-1.1 0-2-.9-2-2s.9-2 2-2h8c1.1 0 2 .9 2 2s-.9 2-2 2zM14 54H6c-1.1 0-2-.9-2-2s.9-2 2-2h8c1.1 0 2 .9 2 2s-.9 2-2 2zM14 46H6c-1.1 0-2-.896-2-2s.9-2 2-2h8c1.1 0 2 .896 2 2s-.9 2-2 2zM14 38H6c-1.1 0-2-.896-2-2s.9-2 2-2h8c1.1 0 2 .896 2 2s-.9 2-2 2zM14 30H6c-1.1 0-2-.896-2-2s.9-2 2-2h8c1.1 0 2 .896 2 2s-.9 2-2 2zM14 22H6c-1.1 0-2-.896-2-2s.9-2 2-2h8c1.1 0 2 .896 2 2s-.9 2-2 2zM90 78h-8c-1.1 0-2-.9-2-2s.9-2 2-2h8c1.1 0 2 .9 2 2s-.9 2-2 2zM90 70h-8c-1.1 0-2-.9-2-2s.9-2 2-2h8c1.1 0 2 .9 2 2s-.9 2-2 2zM90 62h-8c-1.1 0-2-.9-2-2s.9-2 2-2h8c1.1 0 2 .9 2 2s-.9 2-2 2zM90 54h-8c-1.1 0-2-.9-2-2s.9-2 2-2h8c1.1 0 2 .9 2 2s-.9 2-2 2zM90 46h-8c-1.1 0-2-.896-2-2s.9-2 2-2h8c1.1 0 2 .896 2 2s-.9 2-2 2zM90 38h-8c-1.1 0-2-.896-2-2s.9-2 2-2h8c1.1 0 2 .896 2 2s-.9 2-2 2zM90 30h-8c-1.1 0-2-.896-2-2s.9-2 2-2h8c1.1 0 2 .896 2 2s-.9 2-2 2zM90 22h-8c-1.1 0-2-.896-2-2s.9-2 2-2h8c1.1 0 2 .896 2 2s-.9 2-2 2z"></path></g><!----></svg>